<?xml version="1.0" encoding="UTF-8"?>
<svg width="24px" height="24px" viewBox="0 0 24 24" version="1.1" xmlns="http://www.w3.org/2000/svg" xmlns:xlink="http://www.w3.org/1999/xlink">
    <!-- Generator: Sketch 48.2 (47327) - http://www.bohemiancoding.com/sketch -->
    <title>shopping-cart</title>
    <desc>Created with Sketch.</desc>
    <defs></defs>
    <g id="Symbols" stroke="none" stroke-width="1" fill="none" fill-rule="evenodd">
        <g id="shopping-cart" fill="#BF8E22" fill-rule="nonzero">
            <g transform="translate(4.000000, 2.000000)" id="Combined-Shape">
                <path d="M11.9991195,5.14105997 L14.3515501,5.14105997 C14.7227864,5.14018686 15.0315423,5.41260555 15.0572778,5.76451056 L15.9982482,18.2822522 C16.012032,18.4682368 15.9440318,18.6515927 15.8098706,18.7869407 C15.6757094,18.9231561 15.488247,19.0008667 15.2925251,18.9999927 L0.707475163,18.9999927 C0.511746271,19.0008658 0.324288509,18.9231539 0.19012966,18.7869407 C0.0559684583,18.6515994 -0.0120331171,18.4682301 0.00175209865,18.2822522 L0.942722458,5.76451056 C0.968453292,5.4126279 1.2772139,5.1401882 1.64845023,5.14105997 L4.00087142,5.14105997 L4.00087142,3.79987783 C4.00087142,2.44210522 4.7626575,1.18724633 6.00043343,0.508829434 C7.23820937,-0.169587458 8.76171095,-0.169632164 9.99955746,0.508829434 C11.237404,1.18729103 11.9991195,2.44201581 11.9991195,3.79987783 L11.9991195,5.14105997 Z M10.5876639,5.14105997 L10.5876639,3.79987783 C10.5876639,2.44210522 9.42890598,1.34103572 7.99999545,1.34103572 C6.57108491,1.34103572 5.41232696,2.44210522 5.41232696,3.79987783 L5.41232696,5.14105997 L10.5876639,5.14105997 Z M11.9991195,6.48225105 L11.9991195,9.16462426 C11.9991195,9.53483647 11.6830005,9.83521756 11.2933917,9.83521756 C10.9037829,9.83521756 10.5876639,9.53483647 10.5876639,9.16462426 L10.5876639,6.48225105 L5.41232696,6.48225105 L5.41232696,9.16462426 C5.41232696,9.53483647 5.09620797,9.83521756 4.70659919,9.83521756 C4.31699041,9.83521756 4.00087142,9.53483647 4.00087142,9.16462426 L4.00087142,6.48225105 L2.30446653,6.48225105 L1.46472106,17.6588061 L14.5352698,17.6588061 L13.6953832,6.48225105 L11.9991195,6.48225105 Z"></path>
            </g>
        </g>
    </g>
</svg>